<svg viewBox="0 0 72 72" xmlns="http://www.w3.org/2000/svg"><path d="m53.2127 6.2105-6.25 6s-5.875-3.125-12-3.125-10.75 3-10.75 3l-6.75-6-3.25-.375-3 3.75-1.5 7.5s-.125 9.75 2.5 11.625-2 13.25-2 13.25l3.375 6.75 8 5.625 2.75 1.875s3.3331 7.5833 10.9944 5.5959c0 0 5.7556 3.4875 10.3806-5.4709l2.5-1.5 6.375-3.625 6-8.125s-3.25-10.75-2.5-14.25 2.875-9.5 2.625-11.25-2-8.625-2-8.625-1.875-4.75-5.5-2.625z" fill="#9b9b9a"/><path d="m12.421 45.5021s4.0833-10.25 10.1667-10l7.5833-.4167 2.25 3.1667s.9857 5.682-.6702 9.5016c-.3188.7354.2502 1.5299 1.0442 1.4201 1.1109-.1535 2.5407-.2071 4.1332.0797.7536.1357 1.3819-.5736 1.13-1.2966-.6854-1.9673-1.4463-5.4314-.5539-9.7882l2.75-2.9167 3.75.1667 3.5.5833s9.5-2 9.9167 10.25l2.6667-3.9167-2.5-12.25 1-2.5833 2-7.5-1.0833-8.9167-2.75-5.1667-4.0834.0835-4.4167 5.1667-1.6667.6667-5.25-1.8333-9.25-.6667-8.4167 2.8333-6-6.8333-3.5833-.1667-3.5 5.6667-.8333 6.9167 1.25 6.9167 1.5833 3.6667-.75 6.8333-2 6.5z" fill="#3f3f3f"/><path d="m29.489 53.0348s4.4375-2.5625 11.1875.125l.0625.8125-2.25 1.5-.9375 1.625s-1.3125 1.25-2 1-3-1.125-3-1.125l-.75-1.5625-2.625-1.4375.0625-.875" fill="#3f3f3f"/><path d="m55.2752 8.7105s5.25 8.5625.75 17.5c0 0-4.4375-6.5-7.9375-6.375 0 0 7.0625-4.25 7.1875-11.125z" fill="#9b9b9a"/><path d="m14.7227 8.7105s-5.25 8.5625-.75 17.5c0 0 4.4375-6.5 7.9375-6.375 0 0-7.0625-4.25-7.1875-11.125z" fill="#9b9b9a"/><path d="m29.1765 62.0759c.1166 2.4426.8751 4.2037 2.6761 4.858h6.5847c2.1107-.7139 2.5376-2.4764 2.3018-4.6519z" fill="#9b9b9a"/><circle cx="26.2495" cy="40.2751" r="2"/><circle cx="44.2944" cy="40.5106" r="2"/><g style="fill:none;stroke:#000;stroke-linecap:round;stroke-linejoin:round;stroke-miterlimit:10;stroke-width:2"><path d="m29.3116 53.9749 2.375 1.3959s.4899 2.9667 3.2712 2.748v3.5625s-3.4688 1.7604-6.3438-.5312c-2.2371-1.7832-3.5938-4.6875-3.5938-4.6875"/><path d="m21.739 53.3376c-3.8308-1.0774-6.3025-3.0804-7.8464-5.5039l-4.0216-5.5078c2.7739-7.0508 2.5763-14.1342 2.5763-14.1342-4.7083-8.6667-1.625-17.4583-1.625-17.4583 2.5417-8.2917 6.7917-5.0417 6.7917-5.0417 3.0417 5.1667 9.875 8.9167 9.875 8.9167"/><path d="m15.614 9.2126s.375 7.5 7.3125 10.375c0 0-6.6983 1.679-7.7816 6.3457"/><path d="m54.8556 9.2126s-.375 7.5-7.3125 10.375c0 0 6.6983 1.679 7.7816 6.3457"/><path d="m30.9474 40.5106s2.711-4.3812-1.25-5.6689c-2.7917-.9075-6.2083 1.0584-6.2083 1.0584"/><path d="m35.3321 61.6813s3.4688 1.7604 6.3438-.5312c2.2371-1.7832 3.5938-4.6875 3.5938-4.6875"/><path d="m40.6873 53.9749-2.7917 1.3959s-.1566 2.9667-2.9378 2.748"/><path d="m42.8008 14.9502s6.8333-3.75 9.875-8.9167c0 0 4.25-3.25 6.7917 5.0417 0 0 3.0833 8.7917-1.625 17.4583 0 0-.0675 7.3188 2.6299 13.7929l-4.6974 6.7357c-1.5598 2.0223-3.8715 3.6742-7.2242 4.6172"/><path d="m39.3425 40.8524s-2.7109-4.3812 1.25-5.6689c2.7917-.9075 6.2083 1.0584 6.2083 1.0584"/><path d="m24.6882 11.4515s7.9524-5.5773 21.3522 0"/><path d="m31.3533 65.8686c2.7191 1.4858 5.2903 1.3535 7.75 0"/></g></svg>